# xmcd
#
# Track frame offsets: 
#        182
#        22715
#        40310
#        54857
#        69265
#        83450
#        100027
#        111887
#        129457
#        141965
#        158200
#        178297
#        195962
#        218422
#        232072
#        249102
#
# Disc length: 3654 seconds
#
# Revision: 1
# Processed by: cddbd v1.4PL0 Copyright (c) Steve Scherf et al.
# Submitted via: ExactAudioCopy v0.90b4
#
DISCID=c20e4410
DTITLE=Krzysztof Daukszewicz - Stare and Nowe
DYEAR=1994
DGENRE=
TTITLE0=Leniwa Niedziela
TTITLE1=Swiadek Wesolego Miasteczka
TTITLE2=Pochod
TTITLE3=Zadupie
TTITLE4=Ja Was Prosze Panowie
TTITLE5=On i Ja
TTITLE6=W Pogoni Za Niepewnym Jutrem
TTITLE7=I To Jest Moj Kraj
TTITLE8=Smierc Satyryka
TTITLE9=Easy Rider
TTITLE10=Na Bezdrozach
TTITLE11=Sposob Na Przetrwanie
TTITLE12=Tyle Mi Zostalo Co Mi Nakapalo
TTITLE13=Bieda - Kolezka
TTITLE14=Obok Hotelu 'Grand'
TTITLE15=Dobranoc Europo
EXTD=
EXTT0=
EXTT1=
EXTT2=
EXTT3=
EXTT4=
EXTT5=
EXTT6=
EXTT7=
EXTT8=
EXTT9=
EXTT10=
EXTT11=
EXTT12=
EXTT13=
EXTT14=
EXTT15=
PLAYORDER=
